<?xml version="1.0" encoding="UTF-8" standalone="no"?>
<!-- Created with Inkscape (http://www.inkscape.org/) -->

<svg
   width="210mm"
   height="297mm"
   viewBox="0 0 210 297"
   version="1.1"
   id="svg5"
   inkscape:version="1.1.1 (3bf5ae0d25, 2021-09-20, custom)"
   sodipodi:docname="icons.svg"
   xmlns:inkscape="http://www.inkscape.org/namespaces/inkscape"
   xmlns:sodipodi="http://sodipodi.sourceforge.net/DTD/sodipodi-0.dtd"
   xmlns="http://www.w3.org/2000/svg"
   xmlns:svg="http://www.w3.org/2000/svg">
  <sodipodi:namedview
     id="namedview7"
     pagecolor="#ffffff"
     bordercolor="#666666"
     borderopacity="1.0"
     inkscape:pageshadow="2"
     inkscape:pageopacity="0.0"
     inkscape:pagecheckerboard="0"
     inkscape:document-units="mm"
     showgrid="false"
     inkscape:zoom="0.77771465"
     inkscape:cx="-72.005845"
     inkscape:cy="230.80445"
     inkscape:window-width="2949"
     inkscape:window-height="1599"
     inkscape:window-x="2560"
     inkscape:window-y="61"
     inkscape:window-maximized="1"
     inkscape:current-layer="layer1" />
  <defs
     id="defs2" />
  <g
     inkscape:label="Layer 1"
     inkscape:groupmode="layer"
     id="layer1">
    <rect
       fill="#ffffff" stroke="#000000" stroke-width="1"
       id="TASK_BIG"
       width="100"
       height="80"
       x="0.26249951"
       y="0.26249951"
       rx="10" />
    <text
       xml:space="preserve"
       style="font-size:4.23333px;line-height:1.25;font-family:'Source Code Pro';-inkscape-font-specification:'Source Code Pro, Normal';letter-spacing:0px;word-spacing:0px;writing-mode:lr-tb;stroke-width:0.264583"
       x="-1.068942"
       y="-9.3582506"
       id="text2712-3"><tspan
         sodipodi:role="line"
         id="tspan2710-8"
         style="font-style:normal;font-variant:normal;font-weight:600;font-stretch:normal;font-size:14.1111px;font-family:'Source Code Pro';-inkscape-font-specification:'Source Code Pro, Semi-Bold';font-variant-ligatures:normal;font-variant-caps:normal;font-variant-numeric:normal;font-variant-east-asian:normal;stroke-width:0.264583"
         x="-1.068942"
         y="-9.3582506">E</tspan></text>
    <text
       xml:space="preserve"
       style="font-size:14.1111px;line-height:1.25;font-family:'Source Code Pro';-inkscape-font-specification:'Source Code Pro, Normal';letter-spacing:0px;word-spacing:0px;writing-mode:lr-tb;stroke-width:0.264583"
       x="8.2758713"
       y="-17.316509"
       id="text26557"><tspan
         sodipodi:role="line"
         id="tspan26555"
         style="font-style:normal;font-variant:normal;font-weight:600;font-stretch:normal;font-size:14.1111px;font-family:'Source Code Pro';-inkscape-font-specification:'Source Code Pro Semi-Bold';stroke-width:0.264583"
         x="8.2758713"
         y="-17.316509">R</tspan></text>
    <path
       d="m 11.504082,24.374985 h 9.305414 V 22.249272 H 14.020232 V 18.06292 h 5.574572 V 15.937208 H 14.020232 V 12.31482 h 6.572355 v -2.12571 h -9.088505 z"
       id="E" />
    <path
       d="m 10.896735,24.374985 h 2.51615 v -5.552881 h 2.125711 l 3.036732,5.552881 h 2.841515 l -3.383788,-5.921627 c 1.691894,-0.585656 2.819823,-1.908804 2.819823,-4.056207 0,-3.166877 -2.27755,-4.208042 -5.227517,-4.208042 h -4.728626 z m 2.51615,-7.548447 v -4.620172 h 1.952185 c 1.952184,0 3.015041,0.563965 3.015041,2.190785 0,1.605131 -1.062857,2.429387 -3.015041,2.429387 z"
       id="R" />
    <g
       id="REST_TASK_GROUP"
       transform="translate(0.48330756,86.137157)">
      <rect
         fill="#ffffff" stroke="#000000" stroke-width="1"
         id="REST_TASK_RECT"
         width="25"
         height="20"
         x="0.26249951"
         y="0.26249951"
         rx="5" />
      <path
         d="m 4.8866058,14.492357 h 1.9043037 v -4.202586 h 1.6088066 l 2.2982969,4.202586 h 2.15055 l -2.56096,-4.481666 c 1.28048,-0.4432502 2.134133,-1.4446502 2.134133,-3.0698702 0,-2.396794 -1.723723,-3.184781 -3.9563529,-3.184781 H 4.8866058 Z M 6.7909095,8.7794608 v -3.4967 h 1.4774766 c 1.477476,0 2.2818799,0.42683 2.2818799,1.65806 0,1.21481 -0.8044039,1.83864 -2.2818799,1.83864 z"
         id="REST_TASK_ICON" />
    </g>
    <g
       id="EMAIL_TASK_GROUP"
       transform="translate(0.89837772,112.05206)">
      <rect
         fill="#ffffff" stroke="#000000" stroke-width="1"
         id="EMAIL_TASK_RECT"
         width="25"
         height="20"
         x="0.26249951"
         y="0.26249951"
         rx="5" />
      <path
         d="m 5.3462639,14.492366 h 7.0426381 v -1.6088 H 7.2505669 V 9.7151961 h 4.2190161 v -1.6088 H 7.2505669 v -2.74154 H 12.224738 V 3.7560341 H 5.3462639 Z"
         id="EMAIL_TASK_ICON" />
    </g>
  </g>
</svg>
